<svg width="500" height="570" viewBox="0 0 500 570" fill="none" xmlns="http://www.w3.org/2000/svg">
<g clip-path="url(#clip0_4_248)">
<path d="M239.946 534.73L239.309 520.429C239.243 520.394 239.177 520.359 239.11 520.324C232.282 516.748 224.456 523.222 226.637 530.604C228.689 537.549 230.068 545.037 233.824 551.117C236.043 554.648 239.03 557.635 242.564 559.858C246.097 562.08 250.086 563.48 254.235 563.955L262.91 569.256C264.101 562.633 263.838 555.83 262.141 549.318C260.444 542.806 257.352 536.738 253.079 531.533C250.653 528.637 247.872 526.057 244.8 523.854C242.722 529.322 239.946 534.73 239.946 534.73Z" fill="#F2F2F2"/>
<path d="M162.278 389.604C145.576 372.412 121.374 362.553 95.8752 362.553L94.8917 362.556C78.0966 362.562 61.6012 358.116 47.0925 349.672L45.5828 348.794L46.7988 347.543C53.3819 340.745 58.8789 332.978 63.097 324.512C60.1012 327.3 56.5281 329.396 52.6306 330.653C48.733 331.91 44.6064 332.296 40.5427 331.785C36.2524 331.274 32.1337 329.801 28.4954 327.475C24.8571 325.149 21.7937 322.031 19.5351 318.354C10.6232 303.922 0 283.444 0 267.844C0.0138728 254.658 2.78012 241.619 8.12243 229.559C13.4647 217.499 21.2659 206.682 31.0287 197.797C37.2094 192.235 42.1462 185.435 45.5172 177.841C48.8882 170.246 50.6178 162.028 50.5931 153.722L50.5882 152.54C50.5865 141.604 51.9255 130.709 54.5751 120.098L54.8442 119.026L55.9488 119.065C63.0718 119.307 70.1985 118.711 77.1819 117.289C70.6315 116.488 64.2234 114.786 58.1394 112.234L56.9511 111.755L57.3544 110.539C85.1534 93.36 147.904 102.256 184.326 19.084C213.859 -48.3575 318.063 78.9518 318.063 152.54C318.063 160.048 310.618 169.971 316.191 174.934C376.442 228.584 334.87 263.034 321.763 297.699C318.653 305.924 325.396 314.953 325.396 323.852C325.396 325.361 325.357 326.92 325.281 328.484L325.165 330.888L323.156 329.554C319.182 326.955 315.498 323.94 312.168 320.558C315.623 328.494 317.251 337.103 316.933 345.75C316.615 354.397 314.358 362.863 310.329 370.525C304.015 382.419 297.906 390.935 292.173 395.833C273.807 411.519 250.131 419.611 225.987 418.453C201.842 417.295 179.052 406.975 162.278 389.604Z" fill="#E6E6E6"/>
<path d="M263.15 568.55C263.561 568.55 263.957 568.402 264.267 568.133C264.577 567.864 264.78 567.493 264.838 567.087C264.91 566.579 272.012 515.459 265.634 447.519C259.743 384.775 240.828 294.4 184.164 220.178C184.028 219.999 183.859 219.85 183.665 219.737C183.471 219.624 183.257 219.551 183.035 219.52C182.812 219.49 182.586 219.504 182.37 219.561C182.153 219.619 181.949 219.718 181.771 219.854C181.592 219.989 181.443 220.159 181.33 220.352C181.217 220.546 181.144 220.76 181.114 220.981C181.084 221.203 181.098 221.429 181.156 221.645C181.213 221.862 181.313 222.065 181.449 222.243C237.624 295.824 256.387 385.535 262.235 447.837C268.576 515.381 261.53 566.103 261.459 566.607C261.424 566.849 261.442 567.095 261.512 567.329C261.581 567.563 261.7 567.78 261.86 567.964C262.021 568.148 262.219 568.296 262.441 568.397C262.664 568.498 262.906 568.551 263.15 568.55Z" fill="#3F3D56"/>
<path d="M216.909 324.872C217.27 324.873 217.621 324.759 217.913 324.548C218.204 324.336 218.422 324.038 218.533 323.696C218.645 323.354 218.645 322.985 218.534 322.643C218.422 322.301 218.205 322.003 217.914 321.791C217.708 321.642 196.979 306.734 165.989 295.409C137.341 284.941 93.7776 275.451 48.9298 289.697C48.7159 289.765 48.5175 289.874 48.3459 290.018C48.1743 290.162 48.0328 290.338 47.9296 290.537C47.8264 290.736 47.7635 290.953 47.7444 291.176C47.7254 291.399 47.7506 291.624 47.8186 291.837C47.8867 292.051 47.9962 292.249 48.1409 292.42C48.2856 292.591 48.4627 292.732 48.662 292.834C48.8613 292.937 49.079 292.999 49.3026 293.018C49.5261 293.037 49.7511 293.011 49.9647 292.943C93.8937 278.989 136.667 288.323 164.815 298.608C195.363 309.772 215.705 324.4 215.907 324.547C216.198 324.758 216.549 324.872 216.909 324.872Z" fill="#3F3D56"/>
<path d="M295.014 130.713C295.041 130.354 294.952 129.996 294.762 129.691C294.572 129.385 294.29 129.147 293.956 129.011C293.622 128.876 293.254 128.849 292.904 128.935C292.554 129.021 292.24 129.216 292.008 129.491C291.844 129.685 275.454 149.247 261.904 179.282C249.38 207.047 236.76 249.731 247.766 295.403C247.872 295.842 248.148 296.221 248.534 296.457C248.92 296.693 249.384 296.766 249.824 296.66C250.264 296.555 250.644 296.279 250.881 295.894C251.117 295.508 251.19 295.045 251.084 294.606C240.304 249.87 252.711 207.961 265.017 180.681C278.373 151.075 294.456 131.877 294.617 131.687C294.849 131.412 294.989 131.071 295.014 130.713Z" fill="#3F3D56"/>
<path d="M292.705 218.54C294.145 230.134 302.194 239.694 313.9 239.694C319.521 239.694 324.912 237.465 328.887 233.498C332.862 229.531 335.095 224.15 335.095 218.54C335.095 206.856 325.556 198.465 313.9 197.385C301.533 196.239 290.856 203.654 292.705 218.54Z" fill="#2F2E41"/>
<path d="M323.716 559.233L331.788 559.232L335.627 528.16L323.715 528.16L323.716 559.233Z" fill="#FFB6B6"/>
<path d="M323.433 567.637L348.253 567.636V567.322C348.253 564.765 347.235 562.313 345.423 560.505C343.612 558.696 341.155 557.68 338.592 557.68H338.592L334.058 554.247L325.599 557.681L323.433 557.681L323.433 567.637Z" fill="#2F2E41"/>
<path d="M291.924 559.233L299.995 559.232L303.835 528.16L291.923 528.16L291.924 559.233Z" fill="#FFB6B6"/>
<path d="M291.641 567.637L316.461 567.636V567.322C316.46 564.765 315.443 562.313 313.631 560.505C311.819 558.696 309.362 557.68 306.8 557.68H306.799L302.266 554.247L293.807 557.681L291.64 557.681L291.641 567.637Z" fill="#2F2E41"/>
<path d="M351.492 364.619L357.198 384.146L350.476 466.848C350.476 466.848 353.938 472.019 351.492 472.019C349.046 472.019 345.91 473.165 347.886 476.253C349.862 479.341 343.109 490.428 343.109 490.428L333.558 549.314L321.388 549.134C321.388 549.134 315.2 545.694 318.673 542.215C322.145 538.736 324.591 538.737 321.33 535.482C318.069 532.227 318.069 533.208 318.069 530.683C318.069 528.159 314.802 497.312 322.55 485.479L320.215 437.234L314.717 484.556L303.396 547.687L291.672 547.59C291.672 547.59 286.257 542.381 286.267 538.525C286.277 534.668 289.612 534.348 287.129 532.067C284.646 529.787 284.646 494.749 291.983 475.273C291.983 475.273 296.133 464.392 291.974 460.663C287.814 456.934 291.968 452.668 291.968 452.668C291.968 452.668 298.557 450.291 291.962 443.442C285.368 436.593 291.927 388.157 291.927 388.157C291.927 388.157 284.718 368.604 292.019 360.916C299.32 353.228 351.492 364.619 351.492 364.619Z" fill="#2F2E41"/>
<path d="M249.858 398.262L260.039 373.705L268.061 378.153L263.217 403.134C263.702 404.717 263.735 406.403 263.313 408.003C262.89 409.604 262.029 411.055 260.825 412.194C259.622 413.332 258.124 414.113 256.5 414.449C254.877 414.785 253.191 414.661 251.634 414.093C250.076 413.525 248.708 412.535 247.684 411.234C246.659 409.932 246.019 408.371 245.834 406.727C245.65 405.082 245.929 403.418 246.64 401.923C247.351 400.428 248.465 399.16 249.858 398.262Z" fill="#FFB6B6"/>
<path d="M420.701 204.072L405.21 225.688L398.407 219.542L408.796 196.306C408.683 194.655 409.034 193.005 409.808 191.542C410.583 190.078 411.751 188.86 413.182 188.023C414.613 187.186 416.249 186.764 417.907 186.804C419.564 186.845 421.178 187.346 422.566 188.251C423.954 189.157 425.062 190.431 425.764 191.93C426.466 193.429 426.736 195.094 426.542 196.738C426.348 198.382 425.699 199.939 424.667 201.234C423.635 202.53 422.262 203.513 420.701 204.072Z" fill="#FFB6B6"/>
<path d="M353.029 366.621C363.077 382.176 312.57 401.917 293.19 393.992C289.797 392.604 278.124 388.02 286.103 381.666C294.082 375.311 285.178 374.416 284.967 370.28C284.827 367.514 286.972 361.447 284.733 361.707C282.495 361.967 279.875 358.142 284.75 356.496C289.625 354.851 284.802 353.35 284.845 351.787C285.311 334.737 298.418 307.618 298.418 307.618L274.801 367.873C274.801 367.873 274.976 378.297 271.964 375.112C268.952 371.926 269.171 382.236 269.171 382.236C269.171 382.236 264.693 385.356 267.268 387.092C269.843 388.828 264.496 394.165 264.496 394.165L252.018 393.276C252.018 393.276 252.213 384.024 254.344 381.978C256.474 379.932 255.428 376.713 255.428 376.713C255.428 376.713 260.975 371.812 257.256 367.833C252.473 362.715 269.911 276.274 275.929 277.13C276.78 272.998 278.759 269.18 281.648 266.1C284.537 263.02 288.223 260.797 292.298 259.677L305.775 255.973L308.168 246.496H327.145L330.45 252.723L344.877 259.222C347.595 255.395 349.626 251.362 360.753 250.055C360.753 250.055 390.738 222.825 389.274 220.699C387.81 218.573 392.458 213.595 392.458 213.595C392.458 213.595 396.428 212.298 394.188 211.606C391.948 210.913 396.182 209.313 396.182 209.313C396.182 209.313 400.103 208.284 398.254 206.93C396.404 205.576 404.426 204.686 404.426 204.686L414.834 213.162L412.73 216.722C412.73 216.722 414.013 221.57 412.339 219.8C410.665 218.03 410.35 223.166 410.35 223.166C410.35 223.166 409.495 228.79 404.426 230.484C399.357 232.178 395.513 248.275 395.513 248.275C383.559 263.789 369.45 275.891 352.732 283.858C359.248 291.323 353.029 366.621 353.029 366.621Z" fill="#6C63FF"/>
<path d="M316.243 240.95C326.623 240.95 335.038 232.552 335.038 222.192C335.038 211.831 326.623 203.433 316.243 203.433C305.863 203.433 297.448 211.831 297.448 222.192C297.448 232.552 305.863 240.95 316.243 240.95Z" fill="#FFB6B6"/>
<path d="M296.781 224.235C297.376 228.312 300.857 233.999 300.042 233.999C299.227 233.999 293.431 217.195 299.227 216.099C303.431 215.304 304.37 216.001 308.3 214.301L307.745 214.821C310.346 216.709 313.965 215.546 316.933 214.317C319.908 213.097 323.519 211.933 326.128 213.813C327.766 214.992 328.459 217.043 329.478 218.784C330.497 220.533 332.38 222.185 334.321 221.648C335.878 221.217 336.774 219.475 336.766 217.864C336.758 216.254 334.656 214.721 335.364 213.276C337.462 208.992 335.575 206.073 331.003 204.057C329.34 203.805 327.677 203.547 326.014 203.284C326.885 202.079 327.942 201.02 329.144 200.144C328.636 198.843 327.757 197.72 326.617 196.913C325.288 196.124 323.642 196.181 322.101 196.262C318.661 196.441 315.223 196.62 311.789 196.799C309.245 196.93 306.612 197.084 304.338 198.248C301.501 199.704 299.642 202.544 298.289 205.432C295.257 211.925 295.737 217.148 296.781 224.235Z" fill="#2F2E41"/>
<path d="M151.742 485.302C152.083 482.964 149.63 480.673 146.263 480.184C142.896 479.695 139.891 481.194 139.55 483.532C139.209 485.869 141.662 488.16 145.029 488.649C148.396 489.138 151.401 487.64 151.742 485.302Z" fill="#E6E6E6"/>
<path d="M191.826 481.398C192.167 479.061 189.714 476.769 186.347 476.28C182.98 475.792 179.975 477.29 179.634 479.628C179.293 481.965 181.746 484.257 185.113 484.745C188.48 485.234 191.485 483.736 191.826 481.398Z" fill="#3F3D56"/>
<path d="M140.766 452.913C141.106 450.575 138.653 448.284 135.287 447.795C131.92 447.306 128.915 448.805 128.574 451.142C128.233 453.48 130.686 455.771 134.053 456.26C137.419 456.749 140.425 455.25 140.766 452.913Z" fill="#FF6584"/>
<path d="M123.348 439.646C123.364 437.5 122.165 435.751 120.669 435.74C119.174 435.728 117.948 437.459 117.932 439.605C117.915 441.751 119.115 443.5 120.61 443.511C122.106 443.522 123.332 441.792 123.348 439.646Z" fill="#E6E6E6"/>
<path d="M117.441 414.934C117.458 412.788 116.258 411.04 114.762 411.028C113.267 411.017 112.041 412.748 112.025 414.894C112.009 417.04 113.208 418.788 114.704 418.8C116.199 418.811 117.425 417.08 117.441 414.934Z" fill="#3F3D56"/>
<path d="M163.373 458.425C163.39 456.279 162.19 454.53 160.695 454.519C159.199 454.507 157.973 456.238 157.957 458.384C157.941 460.53 159.14 462.279 160.636 462.29C162.131 462.301 163.357 460.571 163.373 458.425Z" fill="#E6E6E6"/>
<path d="M144.003 468.078C144.019 465.932 142.82 464.183 141.324 464.172C139.828 464.16 138.603 465.891 138.587 468.037C138.57 470.183 139.77 471.932 141.265 471.943C142.761 471.954 143.987 470.224 144.003 468.078Z" fill="#FF6584"/>
<path d="M170.967 485.919C170.984 483.773 169.784 482.024 168.289 482.013C166.793 482.001 165.567 483.732 165.551 485.878C165.535 488.024 166.734 489.773 168.23 489.784C169.725 489.795 170.951 488.065 170.967 485.919Z" fill="#3F3D56"/>
<path d="M459.884 360.003C460.225 357.665 457.772 355.374 454.405 354.885C451.039 354.396 448.033 355.894 447.692 358.232C447.352 360.57 449.805 362.861 453.171 363.35C456.538 363.839 459.544 362.34 459.884 360.003Z" fill="#E6E6E6"/>
<path d="M499.968 356.099C500.309 353.761 497.856 351.47 494.489 350.981C491.123 350.492 488.117 351.991 487.776 354.328C487.436 356.666 489.889 358.957 493.255 359.446C496.622 359.935 499.628 358.436 499.968 356.099Z" fill="#3F3D56"/>
<path d="M448.907 327.613C449.248 325.276 446.795 322.984 443.428 322.496C440.062 322.007 437.056 323.505 436.715 325.843C436.375 328.18 438.828 330.472 442.194 330.961C445.561 331.45 448.566 329.951 448.907 327.613Z" fill="#FF6584"/>
<path d="M431.49 314.346C431.507 312.2 430.307 310.451 428.812 310.44C427.316 310.429 426.09 312.159 426.074 314.305C426.058 316.451 427.257 318.2 428.753 318.211C430.248 318.223 431.474 316.492 431.49 314.346Z" fill="#E6E6E6"/>
<path d="M425.584 289.635C425.6 287.489 424.401 285.74 422.905 285.729C421.409 285.717 420.183 287.448 420.167 289.594C420.151 291.74 421.35 293.489 422.846 293.5C424.342 293.511 425.567 291.781 425.584 289.635Z" fill="#3F3D56"/>
<path d="M471.516 333.125C471.532 330.979 470.333 329.23 468.837 329.219C467.341 329.208 466.116 330.938 466.099 333.084C466.083 335.23 467.282 336.979 468.778 336.99C470.274 337.002 471.499 335.271 471.516 333.125Z" fill="#E6E6E6"/>
<path d="M452.145 342.778C452.162 340.632 450.962 338.883 449.467 338.872C447.971 338.861 446.745 340.591 446.729 342.737C446.713 344.883 447.912 346.632 449.408 346.643C450.903 346.655 452.129 344.924 452.145 342.778Z" fill="#FF6584"/>
<path d="M479.11 360.619C479.126 358.473 477.927 356.724 476.431 356.713C474.935 356.702 473.71 358.432 473.693 360.578C473.677 362.724 474.876 364.473 476.372 364.484C477.868 364.496 479.093 362.765 479.11 360.619Z" fill="#3F3D56"/>
<path d="M310.704 128.117C311.045 125.779 308.592 123.488 305.225 122.999C301.858 122.51 298.853 124.009 298.512 126.346C298.172 128.684 300.624 130.975 303.991 131.464C307.358 131.953 310.363 130.455 310.704 128.117Z" fill="white"/>
<path d="M350.788 124.213C351.129 121.876 348.676 119.584 345.309 119.095C341.943 118.606 338.937 120.105 338.596 122.443C338.256 124.78 340.709 127.072 344.075 127.56C347.442 128.049 350.448 126.551 350.788 124.213Z" fill="#3F3D56"/>
<path d="M299.728 95.7277C300.069 93.3902 297.616 91.0989 294.249 90.61C290.882 90.1211 287.877 91.6197 287.536 93.9572C287.195 96.2948 289.648 98.5862 293.015 99.0751C296.382 99.564 299.387 98.0653 299.728 95.7277Z" fill="#FF6584"/>
<path d="M282.31 82.4606C282.327 80.3147 281.127 78.5658 279.632 78.5546C278.136 78.5433 276.91 80.2738 276.894 82.4198C276.878 84.5658 278.077 86.3146 279.573 86.3259C281.068 86.3371 282.294 84.6066 282.31 82.4606Z" fill="#E6E6E6"/>
<path d="M276.404 57.7493C276.42 55.6033 275.221 53.8545 273.725 53.8432C272.229 53.8319 271.003 55.5624 270.987 57.7084C270.971 59.8544 272.17 61.6032 273.666 61.6145C275.162 61.6258 276.387 59.8953 276.404 57.7493Z" fill="#3F3D56"/>
<path d="M322.336 101.24C322.352 99.0936 321.153 97.3448 319.657 97.3335C318.161 97.3222 316.936 99.0527 316.919 101.199C316.903 103.345 318.102 105.093 319.598 105.105C321.094 105.116 322.32 103.386 322.336 101.24Z" fill="#E6E6E6"/>
<path d="M302.965 110.892C302.982 108.747 301.782 106.998 300.287 106.986C298.791 106.975 297.565 108.706 297.549 110.852C297.533 112.998 298.732 114.746 300.228 114.758C301.723 114.769 302.949 113.038 302.965 110.892Z" fill="#FF6584"/>
<path d="M329.93 128.734C329.946 126.588 328.747 124.839 327.251 124.828C325.755 124.816 324.53 126.547 324.513 128.693C324.497 130.839 325.696 132.588 327.192 132.599C328.688 132.61 329.914 130.88 329.93 128.734Z" fill="#3F3D56"/>
</g>
<defs>
<clipPath id="clip0_4_248">
<rect width="500" height="570" fill="white"/>
</clipPath>
</defs>
</svg>
