<svg width="55" height="72" viewBox="0 0 55 72" fill="none" xmlns="http://www.w3.org/2000/svg">
<path d="M40.3783 64.5036L40.0717 64.4046L0.967773 51.8255L15.3774 4.60144C15.6643 3.66106 16.1611 2.79802 16.8305 2.07736C17.4999 1.3567 18.3243 0.797221 19.2416 0.44111C20.1589 0.0849993 21.1451 -0.0584608 22.126 0.0215456C23.1068 0.101552 24.0567 0.402941 24.904 0.902986L49.8929 15.6515C51.871 16.8177 53.3759 18.6411 54.1448 20.8032C54.9136 22.9653 54.8974 25.3286 54.0991 27.48L40.3783 64.5036Z" fill="#2F2E41"/>
<path d="M40.5377 67.5058L1.11914 54.8254L15.5287 7.60134C15.8156 6.66096 16.3125 5.7979 16.9819 5.07724C17.6513 4.35657 18.4757 3.7971 19.393 3.44099C20.3103 3.08488 21.2965 2.94142 22.2774 3.02142C23.2582 3.10143 24.2081 3.40281 25.0554 3.90287L51.2374 16.9612C55.1708 19.282 55.0788 25.2891 53.2524 30.2179L40.5377 67.5058Z" fill="#6C63FF"/>
<path d="M36.5908 70.9238C35.6831 71.4354 34.6788 71.7528 33.6417 71.8558C32.6046 71.9589 31.5574 71.8453 30.5666 71.5224L5.37128 63.4171C3.43819 62.7862 1.82866 61.4252 0.88651 59.6248C-0.0556413 57.8245 -0.255743 55.7275 0.328961 53.7817L12.9608 12.3839C13.2132 11.5568 13.6283 10.7885 14.1819 10.1238C14.7355 9.45913 15.4163 8.91156 16.1846 8.51323C16.9528 8.1149 17.7929 7.87381 18.6556 7.8041C19.5183 7.73439 20.3863 7.83747 21.2086 8.10728L47.3187 16.6715C48.5628 17.0794 49.7124 17.7324 50.6996 18.5916C51.6869 19.4509 52.4917 20.4991 53.0667 21.6743C53.6416 22.8495 53.9749 24.1279 54.047 25.434C54.119 26.74 53.9283 28.0473 53.4862 29.2785L39.9803 66.8927C39.3738 68.6006 38.1701 70.0322 36.5908 70.9238Z" fill="#3F3D56"/>
</svg>
